<svg width="300" height="300" viewBox="0 0 300 300" fill="none" xmlns="http://www.w3.org/2000/svg">
<path d="M150 0C232.843 0 300 67.1573 300 150C300 232.843 232.843 300 150 300C130.584 300 112.03 296.311 95 289.596V214.808C109.825 227.401 129.024 235 150 235C196.944 235 235 196.944 235 150C235 103.056 196.944 65 150 65C129.025 65 109.824 72.5982 95 85.1914V65H65V273.605C25.7381 246.555 0 201.284 0 150C0 67.1573 67.1573 0 150 0ZM150 95C180.376 95 205 119.624 205 150C205 180.376 180.376 205 150 205C119.624 205 95 180.376 95 150C95 119.624 119.624 95 150 95Z" fill="black"/>
</svg>
