<svg width="1500" height="400" viewBox="0 0 1500 400" fill="none" xmlns="http://www.w3.org/2000/svg">
<g clip-path="url(#clip0_23_2)">
<path d="M229 50C311.843 50 379 117.157 379 200C379 282.843 311.843 350 229 350C209.584 350 191.03 346.311 174 339.596V264.808C188.825 277.401 208.024 285 229 285C275.944 285 314 246.944 314 200C314 153.056 275.944 115 229 115C208.025 115 188.824 122.598 174 135.191V115H144V323.605C104.738 296.555 79 251.284 79 200C79 117.157 146.157 50 229 50ZM229 145C259.376 145 284 169.624 284 200C284 230.376 259.376 255 229 255C198.624 255 174 230.376 174 200C174 169.624 198.624 145 229 145Z" fill="black"/>
<path d="M646.165 198.66C646.165 223.485 638.481 244.024 623.113 260.278C607.746 276.533 589.423 284.66 568.144 284.66C547.162 284.66 528.395 275.498 511.845 257.175V342.289H477.268V117.093H511.845V145.907C525.735 124.924 543.615 114.433 565.485 114.433C588.241 114.433 607.302 122.265 622.67 137.928C638.333 153.591 646.165 173.835 646.165 198.66ZM560.165 253.629C574.351 253.629 586.32 248.605 596.072 238.557C606.12 228.213 611.144 215.21 611.144 199.546C611.144 183.883 606.12 170.88 596.072 160.536C586.32 150.192 574.498 145.021 560.608 145.021C546.718 145.021 535.045 150.34 525.588 160.979C516.131 171.323 511.402 184.179 511.402 199.546C511.402 215.21 516.131 228.213 525.588 238.557C535.045 248.605 546.57 253.629 560.165 253.629ZM720.127 282H685.549V117.093H720.127V282ZM681.116 68.3299C681.116 62.4192 683.185 57.3952 687.322 53.2577C691.755 48.8247 697.075 46.6082 703.281 46.6082C709.192 46.6082 714.216 48.8247 718.353 53.2577C722.786 57.3952 725.003 62.4192 725.003 68.3299C725.003 74.5361 722.786 79.8557 718.353 84.2887C714.216 88.4261 709.192 90.4948 703.281 90.4948C697.075 90.4948 691.903 88.2783 687.766 83.8454C683.333 79.7079 681.116 74.5361 681.116 68.3299ZM759.711 199.546C759.711 174.722 768.281 154.33 785.422 138.371C802.563 122.412 823.694 114.433 848.814 114.433C873.639 114.433 894.622 123.003 911.763 140.144L891.371 165.412C877.185 153 862.852 146.794 848.371 146.794C833.594 146.794 820.886 151.67 810.247 161.423C799.903 170.88 794.732 183.144 794.732 198.216C794.732 213.584 799.903 226.588 810.247 237.227C820.886 247.57 833.89 252.742 849.257 252.742C864.625 252.742 879.254 245.797 893.144 231.907L913.536 254.072C892.553 274.464 869.354 284.66 843.938 284.66C820.295 284.66 800.347 276.828 784.092 261.165C767.838 245.206 759.711 224.667 759.711 199.546ZM1025.06 253.629C1040.14 253.629 1052.55 248.605 1062.3 238.557C1072.35 228.509 1077.37 215.505 1077.37 199.546C1077.37 183.588 1072.35 170.584 1062.3 160.536C1052.55 150.488 1040.14 145.464 1025.06 145.464C1009.99 145.464 997.58 150.488 987.827 160.536C978.075 170.584 973.198 183.588 973.198 199.546C973.198 215.505 978.075 228.361 987.827 238.113C997.58 248.457 1009.99 253.629 1025.06 253.629ZM1025.06 284.66C1000.24 284.66 979.552 276.533 963.002 260.278C946.453 243.729 938.178 223.485 938.178 199.546C938.178 175.608 946.453 155.512 963.002 139.258C979.552 122.708 1000.24 114.433 1025.06 114.433C1049.89 114.433 1070.58 122.708 1087.13 139.258C1103.68 155.512 1111.95 175.608 1111.95 199.546C1111.95 222.598 1103.68 242.694 1087.13 259.835C1070.58 276.385 1049.89 284.66 1025.06 284.66ZM1186.71 232.794L1164.98 282H1125.97L1221.73 65.2268H1260.74L1356.05 282H1317.04L1295.31 232.794H1186.71ZM1280.69 198.66L1241.23 109.557L1201.78 198.66H1280.69ZM1386.24 65.2268H1423.03V282H1386.24V65.2268Z" fill="black"/>
</g>
<defs>
<clipPath id="clip0_23_2">
<rect width="1500" height="400" fill="white"/>
</clipPath>
</defs>
</svg>
