<svg width="160" height="160" viewBox="0 0 160 160" fill="none" xmlns="http://www.w3.org/2000/svg">
<rect width="160" height="160" fill="black"/>
<path d="M24 80.3008C24 111.374 49.2752 136.602 80.5 136.602C111.725 136.602 137 111.374 137 80.3008C137 49.2274 111.725 24 80.5 24C49.2752 24 24 49.2274 24 80.3008Z" stroke="#6B4DFF" stroke-opacity="0.3" stroke-width="14"/>
<path d="M70.5355 43.1128C50.0932 48.5903 37.941 69.6701 43.4496 90.2285C48.9582 110.787 70.0223 122.966 90.4645 117.489C110.907 112.012 123.059 90.9317 117.55 70.3733C112.042 49.8148 90.9778 37.6353 70.5355 43.1128Z" stroke="#C7A6FF" stroke-opacity="0.3" stroke-width="14"/>
<path d="M54.4336 80.3009C54.4336 76.7293 55.1107 73.3777 56.4648 70.2462C57.8021 67.1147 59.6556 64.364 62.0254 61.9942C64.4121 59.6244 67.1628 57.7625 70.2773 56.4083C73.4089 55.071 76.7604 54.4024 80.332 54.4024C83.9036 54.4024 87.2552 55.071 90.3867 56.4083C93.5182 57.7625 96.2689 59.6244 98.6387 61.9942C101.008 64.364 102.862 67.1147 104.199 70.2462C105.553 73.3777 106.23 76.7293 106.23 80.3009C106.23 83.8725 105.553 87.224 104.199 90.3556C102.862 93.4871 101.008 96.2377 98.6387 98.6075C96.2689 100.977 93.5182 102.831 90.3867 104.168C87.2552 105.522 83.9036 106.199 80.332 106.199C76.7604 106.199 73.4089 105.522 70.2773 104.168C67.1628 102.831 64.4121 100.977 62.0254 98.6075C59.6556 96.2377 57.8021 93.4871 56.4648 90.3556C55.1107 87.224 54.4336 83.8725 54.4336 80.3009ZM70.8105 73.3946V87.2071C70.8105 88.0196 71.0391 88.6544 71.4961 89.1114C71.9531 89.5854 72.5879 89.8223 73.4004 89.8223H87.3145C88.11 89.8223 88.7363 89.5854 89.1934 89.1114C89.6504 88.6544 89.8789 88.0196 89.8789 87.2071V73.3946C89.8789 72.5821 89.6504 71.9389 89.1934 71.4649C88.7363 71.0079 88.11 70.7794 87.3145 70.7794H73.4004C72.5879 70.7794 71.9531 71.0079 71.4961 71.4649C71.0391 71.9389 70.8105 72.5821 70.8105 73.3946Z" fill="#FF0000" fill-opacity="0.4"/>
<path d="M80.5 17C91.119 17 101.129 19.5981 109.926 24.1918C113.386 25.9987 114.205 30.442 111.987 33.6547C109.81 36.8094 105.52 37.5796 102.068 35.9126C95.552 32.7659 88.2361 31 80.5 31C53.1204 31 31 53.1141 31 80.3008C31 107.487 53.1204 129.602 80.5 129.602C88.3432 129.602 95.7542 127.786 102.338 124.557C105.793 122.862 110.108 123.621 112.294 126.789C114.502 129.987 113.7 134.408 110.267 136.228C101.388 140.934 91.2569 143.602 80.5 143.602C45.4299 143.602 17 115.261 17 80.3008C17 45.3407 45.4299 17 80.5 17Z" fill="#6B4DFF"/>
<path d="M68.7236 36.3512C79.4548 33.4758 90.3215 34.7128 99.6604 39.097C103.193 40.7554 104.008 45.2145 101.792 48.4264C99.6134 51.5825 95.3184 52.3185 91.744 50.9294C85.7529 48.6011 79.006 48.0903 72.3467 49.8746C55.6591 54.3464 45.6977 71.5726 50.2109 88.4166C54.7243 105.261 71.9644 115.198 88.6523 110.727C89.815 110.416 90.9448 110.042 92.0394 109.611C95.6278 108.197 99.959 108.917 102.15 112.092C104.353 115.284 103.56 119.716 100.058 121.384C97.9412 122.393 95.7197 123.249 93.4033 123.933L92.2764 124.251C68.4581 130.633 43.9692 116.759 37.0059 93.1715L36.6885 92.0406C30.2863 68.1473 44.0841 43.6138 67.5967 36.6686L68.7236 36.3512Z" fill="#C7A6FF"/>
</svg>
